<?xml version="1.0" standalone="no"?>
<!DOCTYPE svg PUBLIC "-//W3C//DTD SVG 20010904//EN"
 "http://www.w3.org/TR/2001/REC-SVG-20010904/DTD/svg10.dtd">
<svg version="1.0" xmlns="http://www.w3.org/2000/svg"
 width="262.000000pt" height="424.000000pt" viewBox="0 0 262.000000 424.000000"
 preserveAspectRatio="xMidYMid meet">
<metadata>
Created by potrace 1.10, written by Peter Selinger 2001-2011
</metadata>
<g transform="translate(0.000000,424.000000) scale(0.100000,-0.100000)"
fill="#000000" stroke="none">
<path d="M653 4233 c361 -2 953 -2 1315 0 361 1 65 2 -658 2 -723 0 -1019 -1
-657 -2z"/>
<path d="M2375 4121 c-471 -171 -1028 -376 -1230 -452 -403 -151 -399 -150
-500 -147 -80 3 -103 9 -205 50 -116 46 -376 138 -391 138 -5 0 -9 -158 -9
-350 l0 -350 33 -34 c35 -38 151 -87 419 -177 115 -39 159 -50 187 -45 32 5
222 72 671 238 74 27 207 76 295 108 468 170 826 305 865 325 53 28 54 33 58
408 4 333 3 347 -14 347 -11 -1 -91 -27 -179 -59z"/>
<path d="M1690 2536 c-201 -73 -486 -179 -635 -234 -148 -56 -297 -107 -330
-113 -81 -15 -152 -4 -265 41 -105 41 -404 150 -414 150 -3 0 -6 -159 -6 -354
l0 -354 30 -30 c19 -19 71 -46 138 -73 186 -73 416 -149 450 -149 30 0 301 92
672 230 91 34 219 81 285 105 320 116 390 145 418 175 l27 30 0 355 c0 195 -1
355 -2 355 -2 0 -167 -61 -368 -134z"/>
<path d="M2530 1509 c-21 -6 -306 -109 -630 -229 -356 -131 -972 -354 -1085
-393 -145 -49 -223 -40 -470 50 -44 17 -131 48 -193 71 l-112 41 0 -358 0
-357 28 -27 c46 -45 520 -217 594 -217 27 0 107 24 218 64 96 35 301 110 455
166 154 56 352 128 440 160 400 146 729 271 751 285 13 8 26 25 29 38 3 12 4
178 3 368 l-3 345 -25 -7z"/>
</g>
</svg>
